<?xml version="1.0" encoding="UTF-8"?>
<svg version="1.1" xmlns="http://www.w3.org/2000/svg" width="513" height="512">
<path d="M0 0 C169.29 0 338.58 0 513 0 C513 168.96 513 337.92 513 512 C343.71 512 174.42 512 0 512 C0 343.04 0 174.08 0 0 Z " fill="#FEF100" transform="translate(0,0)"/>
<path d="M0 0 C27.90384707 -0.11301891 55.80750781 -0.20506099 83.71152592 -0.25906086 C96.66885149 -0.28480423 109.62602439 -0.31988089 122.58325195 -0.37719727 C133.8813538 -0.42715052 145.17934504 -0.4593191 156.47755426 -0.47044247 C162.45575215 -0.476941 168.43363367 -0.49213383 174.41172981 -0.52865028 C180.04816106 -0.56279806 185.68414811 -0.57301514 191.32067299 -0.56553841 C193.38008291 -0.56690459 195.43950898 -0.57672416 197.49882889 -0.59602737 C221.08559836 -0.80611993 239.92364087 6.71998372 258 22 C258.99773437 22.84304687 258.99773437 22.84304687 260.015625 23.703125 C268.60836005 31.65341257 274.84724943 41.76914694 279.4375 52.4375 C279.91401001 53.52562988 279.91401001 53.52562988 280.40014648 54.63574219 C285.39138958 66.91733902 286.51537525 79.49790833 286.375 92.625 C286.37001495 93.31832428 286.36502991 94.01164856 286.3598938 94.72598267 C286.11868933 123.51342639 280.61583854 151.82899211 261 174 C260.47019531 174.62390625 259.94039063 175.2478125 259.39453125 175.890625 C245.89104972 190.69444179 227.87848298 194.34811955 208.82330322 195.29281616 C205.00763621 195.45908148 201.19154525 195.60544122 197.375 195.75 C193.54355972 195.91601617 189.71241851 196.08802043 185.8812561 196.26031494 C183.51394273 196.36451932 181.14641239 196.46395663 178.77865601 196.55755615 C172.15169187 196.82370813 165.55560724 197.2325835 158.94692993 197.79547119 C154.62129662 198.09568757 150.3343821 198.06469227 146 198 C146.33 201.63 146.66 205.26 147 209 C148.45849365 209.5261792 149.9169873 210.0523584 151.41967773 210.59448242 C158.42646458 213.12314792 165.43216866 215.6548057 172.4375 218.1875 C173.40403818 218.53687811 173.40403818 218.53687811 174.39010239 218.89331436 C189.7839895 224.45825054 205.16913965 230.04537656 220.5234375 235.71875 C221.14960779 235.95002405 221.77577808 236.1812981 222.42092323 236.41958046 C228.98988021 238.84602281 235.5567467 241.27798767 242.12084961 243.7175293 C258.34450563 249.72516019 274.63305 255.35622414 291 261 C291 285.09 291 309.18 291 334 C285.2192245 332.07307483 279.67763463 330.12828283 274.109375 327.734375 C272.60026304 327.09333693 271.09114833 326.45230532 269.58203125 325.8112793 C268.79650879 325.47607269 268.01098633 325.14086609 267.20166016 324.79550171 C253.52039445 318.96117486 239.79518392 313.24681235 226 307.6875 C212.01306988 302.04746244 198.06024062 296.32908995 184.125 290.5625 C180.20056113 288.93870466 176.27610077 287.31496132 172.3515625 285.69140625 C170.9096756 285.09488503 170.9096756 285.09488503 169.43865967 284.48631287 C159.35806932 280.31777359 149.26530786 276.17907007 139.17007446 272.04614258 C129.26694432 267.99159124 119.37299377 263.9156753 109.48828125 259.81640625 C107.35938109 258.93423009 105.23047487 258.05206856 103.1015625 257.16992188 C98.97398103 255.45944141 94.84793806 253.74531488 90.72265625 252.02929688 C88.84250354 251.24986582 86.96229789 250.47056244 85.08203125 249.69140625 C84.22039871 249.33180313 83.35876617 248.97220001 82.47102356 248.60169983 C81.27650826 248.1077195 81.27650826 248.1077195 80.05786133 247.60375977 C79.3671907 247.3167067 78.67652008 247.02965363 77.96492004 246.73390198 C75.9961496 245.99856187 74.04712991 245.4686089 72 245 C72.1065818 246.09624947 72.1065818 246.09624947 72.21531677 247.21464539 C73.05773677 256.79143396 73.12937674 266.28798935 73.09765625 275.89453125 C73.09578632 277.5798895 73.09436514 279.26524831 73.09336853 280.9506073 C73.08958857 285.34153805 73.07979806 289.73243461 73.06866455 294.12335205 C73.05653225 299.41579736 73.05202662 304.70825424 73.04621124 310.00070953 C73.03658295 318.00049664 73.01739505 326.00020906 73 334 C48.91 334 24.82 334 0 334 C-0.32242427 299.36625926 -0.32242427 299.36625926 -0.390625 284.7578125 C-0.43793796 274.70474274 -0.49329617 264.65221269 -0.60351562 254.59960938 C-0.68378039 247.27548154 -0.73498894 239.95179509 -0.75270796 232.62723958 C-0.76305024 228.75619175 -0.78698505 224.88640553 -0.84584045 221.01576614 C-1.09062761 204.26803885 -0.98726888 189.72031065 8 175 C8.61758179 173.92158844 9.23516357 172.84317688 9.87145996 171.73208618 C21.62406535 151.69773703 39.23053431 137.84114572 61.37718201 130.94900513 C67.1719746 129.53228103 72.98309268 129.75642599 78.91430664 129.80810547 C80.87506987 129.81241063 82.83583317 129.81670384 84.79659736 129.82054639 C86.89034212 129.82624487 88.98402381 129.83658388 91.07774544 129.84786606 C95.4531915 129.86990933 99.82847421 129.87023865 104.20396423 129.86599731 C105.70595263 129.8648042 107.20794104 129.86363518 108.70992947 129.8624897 C109.46169016 129.86190945 110.21345085 129.8613292 110.98799217 129.86073136 C121.16376846 129.85471795 131.33924998 129.86716562 141.51489258 129.92089844 C148.39490412 129.95705446 155.27432197 129.96476899 162.15439314 129.94040024 C165.78960693 129.92873212 169.4234901 129.93171468 173.05854988 129.96990585 C177.11152865 130.01236266 181.16196049 129.99275631 185.21508789 129.96826172 C187.00993118 130.00209206 187.00993118 130.00209206 188.84103394 130.03660583 C194.9640615 130.00130556 194.9640615 130.00130556 200.26653862 127.28448868 C203.9291853 123.20218534 206.51865181 118.67987133 208.875 113.75 C209.44992187 112.56921875 210.02484375 111.3884375 210.6171875 110.171875 C214.04976156 102.29828704 214.5721995 92.25195955 212.09375 83.97265625 C208.30816137 76.09814656 202.69668107 69.27759417 195 65 C191.47966341 64.36970312 191.47966341 64.36970312 187.63208008 64.64648438 C186.87442006 64.66796288 186.11676004 64.68944138 185.33614063 64.71157074 C183.57228961 64.7619714 181.80872214 64.82293758 180.04550552 64.89205933 C175.34790045 65.05855473 170.64908557 65.12275631 165.94933605 65.20281219 C161.67915772 65.27618356 157.40938443 65.36537679 153.13957214 65.45739746 C152.39178546 65.47347628 151.64399879 65.4895551 150.87355191 65.50612116 C149.33050701 65.53931792 147.78746267 65.57254029 146.24441886 65.60578728 C142.2355577 65.69159041 138.22664149 65.77473263 134.21772766 65.85803223 C121.47422202 66.12329822 108.73080149 66.39256143 95.98742276 66.66385221 C87.59612087 66.8424758 79.20478473 67.01928186 70.81337768 67.19290113 C66.09132385 67.29073869 61.36933758 67.39123166 56.64738786 67.49396515 C53.66438337 67.55820356 50.68132799 67.61980337 47.69825554 67.68079567 C45.73229584 67.72170126 43.76639791 67.76554622 41.80050659 67.80961609 C27.86147693 68.08905556 13.95218191 68 0 68 C0 45.56 0 23.12 0 0 Z " fill="#3974B0" transform="translate(111,89)"/>
</svg>
